<?xml version="1.0" encoding="UTF-8" standalone="no"?>
<svg
   xmlns:ns="&amp;ns_sfw;"
   xmlns:dc="http://purl.org/dc/elements/1.1/"
   xmlns:cc="http://creativecommons.org/ns#"
   xmlns:rdf="http://www.w3.org/1999/02/22-rdf-syntax-ns#"
   xmlns:svg="http://www.w3.org/2000/svg"
   xmlns="http://www.w3.org/2000/svg"
   xmlns:sodipodi="http://sodipodi.sourceforge.net/DTD/sodipodi-0.dtd"
   xmlns:inkscape="http://www.inkscape.org/namespaces/inkscape"
   version="1.1"
   id="Ebene_1"
   x="0px"
   y="0px"
   width="347.97681"
   height="181.92136"
   viewBox="0 0 347.97681 181.92136"
   enable-background="new 0 0 360 208"
   xml:space="preserve"
   sodipodi:docname="fabi_logo.svg"
   inkscape:version="1.0.1 (3bc2e813f5, 2020-09-07)"><defs
   id="defs25" /><sodipodi:namedview
   pagecolor="#ffffff"
   bordercolor="#666666"
   borderopacity="1"
   objecttolerance="10"
   gridtolerance="10"
   guidetolerance="10"
   inkscape:pageopacity="0"
   inkscape:pageshadow="2"
   inkscape:window-width="1920"
   inkscape:window-height="1017"
   id="namedview23"
   showgrid="false"
   fit-margin-top="0"
   fit-margin-left="0"
   fit-margin-right="0"
   fit-margin-bottom="0"
   inkscape:zoom="2.8138889"
   inkscape:cx="154.42271"
   inkscape:cy="76.093902"
   inkscape:window-x="1912"
   inkscape:window-y="-8"
   inkscape:window-maximized="1"
   inkscape:current-layer="Ebene_1" />
<metadata
   id="metadata2">
	<ns:sfw>
		<ns:slices />
		<ns:sliceSourceBounds
   width="347.979"
   height="181.921"
   x="4.786"
   y="-1.827"
   bottomLeftOrigin="true" />
	</ns:sfw>
<rdf:RDF><cc:Work
     rdf:about=""><dc:format>image/svg+xml</dc:format><dc:type
       rdf:resource="http://purl.org/dc/dcmitype/StillImage" /><dc:title></dc:title></cc:Work></rdf:RDF></metadata>
<g
   id="g20"
   transform="translate(-4.7875587,-27.906098)">
	<path
   fill-rule="evenodd"
   clip-rule="evenodd"
   fill="#19bcf1"
   d="m 211.853,127.184 c 0.391,0.338 0.771,0.689 1.176,1.01 1.524,1.203 2.89,2.559 3.929,4.205 2.454,3.885 2.802,7.947 0.93,12.164 -1.108,2.496 -2.806,4.578 -4.698,6.508 -2.845,2.902 -5.984,5.469 -9.181,7.967 -0.309,0.24 -0.609,0.494 -1.049,0.852 0.635,0.266 1.145,0.457 1.634,0.689 1.954,0.932 3.942,1.799 5.842,2.83 4.256,2.311 6.632,6.066 7.84,10.635 1.193,4.51 0.307,8.744 -1.829,12.789 -1.437,2.721 -3.309,5.129 -5.437,7.328 -4.728,4.885 -10.036,9.002 -16.217,11.91 -5.802,2.73 -11.899,4.084 -18.326,3.689 -1.144,-0.07 -2.314,-0.318 -3.392,-0.707 -2.121,-0.768 -3,-2.215 -2.934,-4.457 0.093,-3.182 1.718,-5.486 4.69,-6.635 1.511,-0.584 3.088,-0.871 4.698,-0.947 1.162,-0.055 2.329,-0.064 3.492,-0.037 2.083,0.053 4.084,-0.318 5.973,-1.172 5.227,-2.365 9.845,-5.568 13.466,-10.074 1.35,-1.68 2.276,-3.592 2.579,-5.756 0.49,-3.508 -0.849,-6.283 -3.499,-8.492 -2.365,-1.969 -5.174,-2.662 -8.183,-2.648 -0.499,0.002 -1.012,0.225 -1.491,0.414 -1.678,0.664 -3.352,1.342 -5.014,2.043 -2.798,1.182 -5.65,0.967 -8.514,0.354 -1.521,-0.326 -2.464,-1.299 -2.827,-2.797 -0.16,-0.66 -0.213,-1.346 -0.322,-2.018 -0.201,-1.252 0.306,-2.234 1.285,-2.92 1.278,-0.895 2.583,-1.777 3.965,-2.494 1.778,-0.92 3.627,-1.713 5.478,-2.484 6.497,-2.703 11.734,-7.039 16.141,-12.436 1.301,-1.594 2.34,-3.365 2.604,-5.477 0.329,-2.623 -0.89,-4.426 -2.829,-5.15 -1.038,-0.389 -2.162,-0.705 -3.26,-0.75 -6.384,-0.256 -12.657,0.496 -18.77,2.381 -1.1,0.34 -2.149,0.879 -3.171,1.424 -0.968,0.516 -1.529,1.371 -1.711,2.482 -0.709,4.313 -1.478,8.615 -2.15,12.932 -0.82,5.27 -1.59,10.547 -2.333,15.828 -0.637,4.527 -1.292,9.053 -1.781,13.598 -0.506,4.703 -0.795,9.43 -1.236,14.143 -0.126,1.35 -0.386,2.699 -0.699,4.021 -0.606,2.561 -2.422,3.865 -4.87,4.436 -1.233,0.287 -2.478,0.25 -3.702,-0.031 -2.017,-0.465 -3.448,-1.668 -4.234,-3.584 -1.12,-2.73 -1.147,-5.537 -0.554,-8.393 0.987,-4.748 2.042,-9.486 2.879,-14.262 0.816,-4.658 1.424,-9.354 2.071,-14.041 0.565,-4.092 1.066,-8.191 1.576,-12.289 0.282,-2.27 0.552,-4.541 0.766,-6.816 0.063,-0.666 -0.018,-1.365 -0.152,-2.025 -0.201,-0.986 -0.529,-1.174 -1.527,-1.082 -2.941,0.275 -5.016,-1.32 -5.554,-4.223 -0.212,-1.145 0.089,-2.146 0.684,-3.088 0.745,-1.18 1.812,-2.031 2.95,-2.799 2.346,-1.582 4.923,-2.701 7.564,-3.666 6.92,-2.527 14.04,-4.232 21.353,-5.154 4.027,-0.508 8.067,-0.813 12.12,-0.842 2.037,-0.014 4.076,0.246 6.115,0.379 0.239,0.016 0.479,0.008 0.72,0.012 1.461,0.486 2.938,0.928 4.377,1.475 0.88,0.332 1.7,0.826 2.549,1.248 z"
   id="path4" />
	<path
   fill-rule="evenodd"
   clip-rule="evenodd"
   fill="#19bcf1"
   d="m 115.522,180.553 c -1.637,0.201 -3.234,0.328 -4.807,0.598 -7.352,1.268 -14.657,2.758 -21.845,4.777 -1.081,0.303 -2.148,0.654 -3.233,0.939 -1.733,0.457 -3.415,0.334 -4.908,-0.559 -1.931,3.303 -3.786,6.584 -5.752,9.797 -1.318,2.154 -2.762,4.234 -4.215,6.301 -0.935,1.33 -2.089,2.414 -3.759,2.838 -1.338,0.34 -2.61,0.342 -3.864,-0.275 -1.42,-0.697 -2.721,-1.574 -3.763,-2.762 -1.752,-2 -1.697,-3.33 -0.722,-5.039 1.749,-3.066 3.474,-6.152 5.353,-9.139 3.783,-6.012 7.68,-11.953 11.498,-17.943 4.812,-7.553 9.074,-15.424 13.434,-23.238 3.011,-5.396 6.118,-10.74 9.257,-16.061 0.808,-1.371 1.783,-2.689 2.891,-3.828 2.755,-2.832 8.19,-2.543 10.788,0.453 0.614,0.709 0.848,1.564 0.857,2.449 0.012,1.199 -0.118,2.398 -0.149,3.598 -0.014,0.551 -0.054,1.139 0.113,1.646 4.137,12.572 8.328,25.127 13.322,37.395 2.212,5.432 4.7,10.73 7.877,15.682 1.609,2.508 3.424,4.852 5.56,6.939 0.631,0.617 1.241,1.258 1.828,1.918 1.949,2.193 2.121,5.066 0.469,7.516 -1.953,2.895 -5.619,3.98 -8.95,2.646 -1.591,-0.637 -2.936,-1.641 -4.157,-2.822 -2.681,-2.598 -4.721,-5.666 -6.518,-8.908 -2.198,-3.967 -4.718,-9.668 -6.605,-14.918 z m -27.635,-6.707 c 8.017,-0.943 15.711,-2.586 23.425,-4.119 -2.752,-8.225 -5.467,-16.34 -8.266,-24.703 -5.103,9.701 -10.08,19.165 -15.159,28.822 z"
   id="path6" />
	<path
   fill-rule="evenodd"
   clip-rule="evenodd"
   fill="#040404"
   d="m 211.853,127.184 c -0.849,-0.422 -1.669,-0.916 -2.551,-1.25 -1.438,-0.547 -2.916,-0.988 -4.377,-1.475 -2.474,-8.043 -3.722,-16.271 -3.429,-24.682 0.713,-20.438 8.312,-37.879 23.119,-52.042 8.17,-7.813 17.819,-13.183 28.627,-16.456 9.075,-2.748 18.35,-3.804 27.819,-3.215 13.379,0.833 25.835,4.619 37.249,11.67 12.503,7.723 21.768,18.324 27.896,31.682 3.255,7.094 5.393,14.494 6.196,22.265 0.784,7.571 0.29,15.081 -1.425,22.485 -3.054,13.184 -8.665,25.201 -16.733,36.07 -4.071,5.486 -9.115,9.885 -14.903,13.484 -6.471,4.023 -13.297,7.232 -20.617,9.387 -7.601,2.238 -15.351,3.301 -23.272,3.158 -9.491,-0.168 -18.614,-2.086 -27.38,-5.719 -0.185,-0.078 -0.375,-0.143 -0.563,-0.211 -0.005,-0.316 -0.055,-0.641 -0.009,-0.949 0.242,-1.656 0.508,-3.307 0.765,-4.961 9.889,4.49 20.272,6.563 31.113,6.143 15.546,-0.602 29.461,-5.846 41.902,-15.094 3.805,-2.828 6.89,-6.379 9.603,-10.236 7.07,-10.059 12.133,-21.039 14.717,-33.082 3.183,-14.834 1.206,-29.021 -5.61,-42.568 C 336.936,65.52 333.149,59.984 328.426,55.096 320.87,47.279 311.898,41.67 301.695,38 c -9.64,-3.467 -19.597,-4.892 -29.809,-4.295 -13.184,0.77 -25.343,4.701 -36.201,12.311 -10.489,7.352 -18.134,17.046 -23.144,28.801 -4.209,9.877 -5.859,20.227 -5.287,30.93 0.394,7.382 2.006,14.519 4.599,21.437 z"
   id="path8" />
	<path
   fill-rule="evenodd"
   clip-rule="evenodd"
   fill="#19bcf1"
   d="m 21.556,164.412 c 2.251,-0.26 4.405,-0.455 6.542,-0.766 6.029,-0.875 12.045,-1.834 18.078,-2.686 2.581,-0.363 5.192,-0.607 7.789,-0.1 0.857,0.168 1.723,0.42 2.51,0.789 1.867,0.877 2.673,2.488 2.701,4.477 0.007,0.52 -0.239,1.109 -0.536,1.559 -1.395,2.105 -3.209,3.746 -5.751,4.25 -2.866,0.57 -5.757,1.035 -8.652,1.432 -6.989,0.959 -14.027,1.555 -20.963,2.895 -0.512,0.098 -1.019,0.229 -1.534,0.301 -1.175,0.166 -1.755,0.869 -1.893,2.006 -0.083,0.676 -0.201,1.35 -0.257,2.027 -0.441,5.318 -0.889,10.639 -0.73,15.984 0.053,1.764 0.191,3.529 0.157,5.291 -0.019,0.986 -0.197,2.004 -0.506,2.941 -0.547,1.656 -1.821,2.607 -3.498,2.982 -2.084,0.465 -4.073,0.139 -5.93,-0.902 -2.035,-1.143 -3.601,-2.691 -4.104,-5.072 -0.124,-0.584 -0.179,-1.191 -0.186,-1.789 -0.049,-4.059 0.237,-8.1 0.694,-12.129 0.479,-4.221 0.983,-8.441 1.538,-12.654 0.566,-4.291 1.213,-8.572 1.814,-12.859 0.607,-4.328 1.2,-8.656 1.802,-12.984 0.348,-2.502 0.674,-5.006 1.065,-7.502 0.26,-1.656 0.24,-3.264 -0.364,-4.855 -0.269,-0.709 -0.455,-1.453 -0.623,-2.195 -0.339,-1.502 -0.049,-2.889 0.96,-4.061 0.6,-0.695 1.259,-1.352 1.956,-1.951 1.489,-1.277 3.203,-1.787 5.151,-1.305 3.375,0.834 6.764,0.586 10.166,0.176 3.304,-0.398 6.617,-0.725 9.928,-1.059 3.791,-0.383 7.578,-0.813 11.376,-1.08 3.557,-0.252 7.134,-0.51 10.663,0.352 1.625,0.398 3.068,1.154 4.364,2.211 0.779,0.635 1.076,1.41 1.003,2.428 -0.292,4.09 -4.328,7.518 -8.333,6.854 -3.242,-0.539 -6.481,-0.439 -9.723,-0.307 -2.844,0.117 -5.685,0.357 -8.519,0.631 -4.11,0.396 -8.216,0.854 -12.227,1.9 -0.31,0.082 -0.612,0.195 -0.925,0.266 -0.655,0.145 -0.977,0.543 -1.177,1.191 -1.198,3.877 -2.122,7.82 -2.673,11.836 -0.496,3.611 -0.801,7.25 -1.186,10.879 -0.014,0.151 0.017,0.309 0.033,0.598 z"
   id="path10" />
	<path
   fill-rule="evenodd"
   clip-rule="evenodd"
   fill="#040404"
   d="m 337.898,103.87 c -0.064,11.005 -3.06,21.108 -9.212,30.276 -2.688,4.004 -5.517,7.883 -8.94,11.295 -6.382,6.361 -13.782,11.084 -22.368,13.904 -6.044,1.986 -12.246,2.83 -18.601,2.625 -2.228,-0.07 -4.406,-0.316 -6.318,-1.598 -0.391,-0.262 -0.772,-0.584 -1.049,-0.959 -0.345,-0.469 -0.43,-1.035 -0.143,-1.594 0.184,-0.357 0.396,-0.699 0.563,-1.063 0.323,-0.701 0.844,-0.934 1.623,-0.967 5.617,-0.242 11.203,-0.799 16.718,-1.939 7.303,-1.512 14.153,-4.096 20.228,-8.529 4.188,-3.055 7.87,-6.652 10.654,-11.002 1.869,-2.92 3.287,-6.145 4.746,-9.309 2.206,-4.781 3.843,-9.762 4.819,-14.955 0.969,-5.15 0.966,-10.307 0.093,-15.447 -1.858,-10.947 -6.626,-20.479 -14.359,-28.443 -6.746,-6.949 -14.957,-11.508 -24.234,-14.172 -7.021,-2.016 -14.185,-2.709 -21.448,-1.917 -12.822,1.398 -23.745,6.709 -32.572,16.168 -4.757,5.098 -8.51,10.845 -10.904,17.43 -1.36,3.741 -2.175,7.629 -3.074,11.495 -0.459,1.973 -0.581,3.943 -0.432,5.971 0.089,1.219 -0.165,2.467 -0.295,3.699 -0.028,0.268 -0.153,0.543 -0.295,0.778 -0.266,0.44 -0.614,0.486 -0.976,0.116 -0.219,-0.226 -0.377,-0.516 -0.542,-0.788 -1.362,-2.253 -1.957,-4.728 -2.065,-7.333 -0.18,-4.343 0.606,-8.551 1.863,-12.682 2.387,-7.846 6.145,-14.96 11.399,-21.273 3.009,-3.614 6.613,-6.529 10.511,-9.117 3.148,-2.09 6.444,-3.902 9.896,-5.439 2.085,-0.93 4.126,-1.971 6.247,-2.809 3.821,-1.508 7.82,-2.383 11.881,-2.938 4.585,-0.627 9.188,-0.762 13.808,-0.34 4.709,0.43 9.255,1.488 13.582,3.392 2.415,1.063 4.851,2.116 7.15,3.4 10.418,5.819 18.739,13.802 24.596,24.257 3.47,6.193 5.57,12.848 6.615,19.856 0.491,3.302 0.833,6.61 0.835,9.951 z"
   id="path12" />
	<path
   fill-rule="evenodd"
   clip-rule="evenodd"
   fill="#040203"
   d="m 269.216,113.725 c 0.588,-2.383 1.211,-4.775 1.762,-7.187 0.323,-1.419 0.14,-1.785 -1.195,-2.317 -0.994,-0.396 -2.055,-0.629 -3.088,-0.928 -0.479,-0.139 -0.846,0.002 -1.137,0.426 -0.226,0.33 -0.514,0.617 -0.778,0.919 -1.02,1.16 -2.289,1.892 -3.82,2.093 -3.501,0.461 -6.975,0.387 -10.334,-0.832 -3.381,-1.228 -5.852,-3.37 -6.445,-7.104 -0.31,-1.949 -0.225,-3.92 0.389,-5.835 1.163,-3.633 3.237,-6.538 6.748,-8.217 5.537,-2.647 11.552,-0.877 14.931,4.348 0.435,0.671 0.805,1.383 1.126,1.939 1.311,0.386 2.495,0.739 3.683,1.083 0.345,0.101 0.693,0.207 1.047,0.26 0.59,0.086 1.036,-0.121 1.188,-0.742 0.205,-0.848 0.393,-1.7 0.589,-2.559 -2.972,-1.93 -4.188,-4.773 -4.78,-7.997 -0.224,-1.221 -0.589,-2.415 -0.819,-3.636 -0.573,-3.025 0.337,-5.552 2.701,-7.521 2.067,-1.725 4.512,-2.602 7.151,-2.885 4.592,-0.494 8.82,0.424 12.251,3.702 2.847,2.719 3.888,6.2 3.728,10.06 -0.054,1.306 -0.563,2.501 -1.348,3.554 -0.6,0.804 -1.189,1.622 -1.863,2.36 -0.335,0.366 -0.815,0.668 -1.287,0.824 -1.03,0.343 -1.612,0.969 -1.998,2.006 -0.766,2.063 -1.673,4.073 -2.577,6.08 -0.294,0.654 -0.129,1.145 0.229,1.662 0.731,1.057 1.832,1.521 2.997,1.877 0.303,0.092 0.628,0.115 1.009,0.181 0.165,-0.179 0.356,-0.372 0.532,-0.581 2.162,-2.569 5.019,-4.105 8.087,-5.244 1.217,-0.45 2.571,-0.161 3.787,0.264 5.393,1.885 9.121,5.459 10.602,11.051 0.878,3.314 0.053,6.316 -2.572,8.631 -1.134,1.002 -2.374,1.934 -3.697,2.658 -3.741,2.049 -7.489,1.832 -11.058,-0.453 -1.169,-0.748 -2.15,-1.789 -3.229,-2.682 -0.518,-0.43 -1.049,-0.848 -1.6,-1.234 -0.557,-0.391 -1.157,-0.719 -1.717,-1.105 -1.101,-0.764 -2.348,-0.99 -3.646,-1.059 -0.575,-0.029 -0.998,0.129 -1.221,0.732 -0.317,0.861 -0.701,1.695 -1.052,2.543 -0.32,0.775 -0.638,1.551 -0.951,2.328 -0.162,0.402 -0.313,0.809 -0.545,1.41 0.191,0.117 0.424,0.215 0.601,0.375 2.918,2.641 3.771,6.041 3.556,9.814 -0.046,0.795 -0.244,1.582 -0.349,2.377 -0.136,1.041 -0.649,1.914 -1.346,2.637 -2.215,2.297 -4.814,4.004 -7.968,4.703 -4.783,1.059 -8.893,-0.314 -12.335,-3.701 -0.993,-0.977 -1.784,-2.16 -2.646,-3.266 -1.087,-1.395 -1.31,-3.063 -1.465,-4.752 -0.063,-0.676 -0.173,-1.35 -0.282,-2.021 -0.273,-1.686 0.149,-3.18 1.213,-4.502 1.52,-1.887 3.579,-2.938 5.82,-3.664 1.059,-0.346 2.165,-0.559 3.421,-0.873 z"
   id="path14" />
	<path
   fill-rule="evenodd"
   clip-rule="evenodd"
   fill="#19bcf1"
   d="m 248.264,166.426 c -0.257,1.654 -0.522,3.305 -0.765,4.961 -0.046,0.309 0.004,0.633 0.01,0.949 -0.163,0.943 -0.356,1.885 -0.485,2.834 -0.682,5.037 -0.591,10.082 -0.141,15.131 0.163,1.836 0.435,3.666 0.514,5.506 0.059,1.35 -0.025,2.723 -0.216,4.061 -0.161,1.133 -0.815,2.084 -1.677,2.855 -1.212,1.086 -2.558,1.924 -4.177,2.275 -3.077,0.666 -5.793,-0.648 -6.892,-3.602 -0.594,-1.596 -0.939,-3.32 -1.15,-5.018 -0.502,-4.037 -0.355,-8.086 0.114,-12.125 0.524,-4.5 0.984,-9.006 1.545,-13.502 0.536,-4.295 1.158,-8.58 1.756,-12.867 0.519,-3.732 1.039,-7.463 1.592,-11.191 0.282,-1.902 0.668,-3.789 0.95,-5.691 0.353,-2.379 0.643,-4.766 0.967,-7.148 0.049,-0.357 0.161,-0.707 0.194,-1.064 0.224,-2.439 1.546,-4.158 3.557,-5.416 0.815,-0.51 1.652,-0.986 2.485,-1.465 1.874,-1.08 4.934,-0.57 6.411,1.639 1.559,2.33 2.238,4.861 1.583,7.656 -1.397,5.971 -2.85,11.928 -4.174,17.916 -0.51,2.301 -0.74,4.664 -1.087,7 -0.312,2.101 -0.61,4.204 -0.914,6.306 z"
   id="path16" />
	<path
   fill-rule="evenodd"
   clip-rule="evenodd"
   fill="#fdfeff"
   d="m 87.887,173.846 c 5.079,-9.656 10.057,-19.121 15.16,-28.822 2.799,8.363 5.514,16.479 8.266,24.703 -7.715,1.533 -15.41,3.175 -23.426,4.119 z"
   id="path18" />
</g>
</svg>
